<svg id="visual" viewBox="0 0 1920 1080" width="1920" height="1080" xmlns="http://www.w3.org/2000/svg" xmlns:xlink="http://www.w3.org/1999/xlink" version="1.1"><g fill="none" stroke="#F7770F" stroke-width="3"><circle r="83" cx="1467" cy="527"></circle><circle r="4" cx="1334" cy="369"></circle><circle r="12" cx="1738" cy="394"></circle><circle r="45" cx="1389" cy="994"></circle><circle r="53" cx="997" cy="230"></circle><circle r="32" cx="1179" cy="300"></circle><circle r="74" cx="1117" cy="780"></circle><circle r="5" cx="1723" cy="620"></circle><circle r="25" cx="861" cy="923"></circle><circle r="37" cx="213" cy="673"></circle><circle r="67" cx="580" cy="130"></circle><circle r="14" cx="650" cy="603"></circle><circle r="57" cx="508" cy="834"></circle><circle r="49" cx="87" cy="287"></circle><circle r="27" cx="988" cy="528"></circle><circle r="76" cx="1613" cy="887"></circle><circle r="71" cx="1570" cy="299"></circle><circle r="46" cx="738" cy="246"></circle><circle r="31" cx="102" cy="981"></circle><circle r="8" cx="1476" cy="101"></circle><circle r="31" cx="1276" cy="684"></circle><circle r="78" cx="1059" cy="994"></circle><circle r="26" cx="1184" cy="126"></circle><circle r="45" cx="181" cy="441"></circle><circle r="44" cx="1781" cy="160"></circle><circle r="18" cx="683" cy="989"></circle><circle r="47" cx="349" cy="291"></circle><circle r="48" cx="453" cy="464"></circle><circle r="76" cx="256" cy="96"></circle><circle r="9" cx="554" cy="306"></circle><circle r="33" cx="873" cy="675"></circle><circle r="65" cx="1486" cy="769"></circle><circle r="22" cx="672" cy="433"></circle><circle r="52" cx="324" cy="945"></circle><circle r="24" cx="1806" cy="891"></circle><circle r="57" cx="869" cy="365"></circle><circle r="26" cx="1233" cy="511"></circle></g></svg>