<svg id="visual" viewBox="0 0 1920 1080" width="1920" height="1080" xmlns="http://www.w3.org/2000/svg" xmlns:xlink="http://www.w3.org/1999/xlink" version="1.1"><g fill="none" stroke="#004C99" stroke-width="6"><circle r="83" cx="1246" cy="995"></circle><circle r="9" cx="925" cy="926"></circle><circle r="66" cx="1693" cy="90"></circle><circle r="50" cx="568" cy="692"></circle><circle r="46" cx="1123" cy="547"></circle><circle r="55" cx="221" cy="659"></circle><circle r="42" cx="1798" cy="299"></circle><circle r="62" cx="581" cy="198"></circle><circle r="44" cx="265" cy="991"></circle><circle r="15" cx="1720" cy="846"></circle><circle r="68" cx="1601" cy="502"></circle><circle r="29" cx="732" cy="612"></circle><circle r="79" cx="1464" cy="203"></circle><circle r="34" cx="608" cy="427"></circle><circle r="73" cx="842" cy="335"></circle><circle r="18" cx="322" cy="239"></circle><circle r="54" cx="1056" cy="112"></circle><circle r="78" cx="275" cy="426"></circle><circle r="38" cx="718" cy="840"></circle><circle r="75" cx="1817" cy="703"></circle><circle r="72" cx="1176" cy="282"></circle><circle r="48" cx="365" cy="782"></circle><circle r="38" cx="92" cy="845"></circle><circle r="60" cx="1431" cy="878"></circle><circle r="17" cx="1129" cy="753"></circle><circle r="53" cx="824" cy="151"></circle><circle r="76" cx="908" cy="618"></circle><circle r="63" cx="480" cy="933"></circle><circle r="54" cx="1474" cy="374"></circle><circle r="8" cx="120" cy="354"></circle><circle r="10" cx="1545" cy="666"></circle><circle r="30" cx="105" cy="88"></circle><circle r="18" cx="1340" cy="728"></circle></g></svg>